<svg xmlns="http://www.w3.org/2000/svg" version="1.1" xmlns:xlink="http://www.w3.org/1999/xlink" xmlns:svgjs="http://svgjs.dev/svgjs" width="1440" height="560" preserveAspectRatio="none" viewBox="0 0 1440 560"><g mask="url(&quot;#SvgjsMask1475&quot;)" fill="none"><rect width="1440" height="560" x="0" y="0" fill="url(&quot;#SvgjsRadialGradient1476&quot;)"></rect><path d="M1244.7590922882978 485.6017513496786L1113.7106920357433 400.49792514928316 1028.606865835348 531.5463254018375 1159.6552660879024 616.650151602233z" fill="rgba(28, 83, 142, 0.4)" class="triangle-float2"></path><path d="M1136.199378315397 394.9915821019895L1123.8040722264911 495.1540015110213 1205.6054377560417 462.1041045279549z" fill="rgba(28, 83, 142, 0.4)" class="triangle-float1"></path><path d="M336.68672930547916 663.6960131674714L429.903592242914 548.5827741849155 314.79035326035813 455.36591124748065 221.5734903229233 570.4791502300366z" fill="rgba(28, 83, 142, 0.4)" class="triangle-float2"></path><path d="M115.464,146.631C147.409,145.341,176.307,129.017,192.82,101.641C209.932,73.271,216.237,37.018,198.433,9.077C181.569,-17.388,146.768,-21.959,115.464,-19.757C88.421,-17.855,65.98,-2.785,50.514,19.481C31.749,46.496,11.514,79.063,26.477,108.356C42.22,139.176,80.884,148.027,115.464,146.631" fill="rgba(28, 83, 142, 0.4)" class="triangle-float3"></path><path d="M1296.817,328.624C1313.427,328.217,1328.79,320.707,1337.889,306.805C1348.027,291.315,1354.565,271.115,1344.714,255.44C1335.228,240.346,1314.622,240.57,1296.817,241.451C1281.003,242.233,1265.227,246.607,1256.479,259.804C1246.748,274.485,1243.197,293.713,1252.103,308.908C1260.932,323.97,1279.363,329.052,1296.817,328.624" fill="rgba(28, 83, 142, 0.4)" class="triangle-float1"></path><path d="M1476.1526642319955 294.3853236792191L1350.5706310626438 253.448889027311 1372.602143192986 366.79119323536145z" fill="rgba(28, 83, 142, 0.4)" class="triangle-float3"></path><path d="M1305.3729894199312 305.4528787067269L1380.273909184727 377.7838561463154 1452.6048866243154 302.8829363815196 1377.7039668595196 230.55195894193108z" fill="rgba(28, 83, 142, 0.4)" class="triangle-float1"></path><path d="M1051.2641422955132 454.0577336294686L1002.125224654958 332.43464458622424 880.5021356117136 381.57356222677953 929.6410532522689 503.19665127002384z" fill="rgba(28, 83, 142, 0.4)" class="triangle-float3"></path><path d="M905.6664520597001 57.620999162304564L825.0864696482016-14.933542890457439 752.5319275954396 65.64643952104097 833.111910006938 138.20098157380298z" fill="rgba(28, 83, 142, 0.4)" class="triangle-float3"></path><path d="M315.671,707.001C368.083,706.79,407.556,665.763,434.292,620.683C461.731,574.417,482.562,517.954,455.287,471.591C428.263,425.655,368.961,418.312,315.671,419.049C264.049,419.763,208.945,430.97,182.588,475.362C155.806,520.471,169.252,576.156,195.386,621.644C221.636,667.334,262.977,707.213,315.671,707.001" fill="rgba(28, 83, 142, 0.4)" class="triangle-float3"></path><path d="M779.887,559.371C814.018,558.771,844.191,539.289,861.673,509.969C879.627,479.857,884.183,442.99,867.739,412.028C850.276,379.146,817.119,355.875,779.887,355.972C742.805,356.069,710.79,380.044,692.825,412.484C675.439,443.879,674.666,482.062,692.964,512.934C710.916,543.222,744.684,559.99,779.887,559.371" fill="rgba(28, 83, 142, 0.4)" class="triangle-float2"></path><path d="M454.3548166776437 27.838870496281178L321.77389315066404 138.87233079883026 462.90457091689575 193.047322233459z" fill="rgba(28, 83, 142, 0.4)" class="triangle-float1"></path></g><defs><mask id="SvgjsMask1475"><rect width="1440" height="560" fill="#ffffff"></rect></mask><radialGradient cx="50%" cy="50%" r="772.53" gradientUnits="userSpaceOnUse" id="SvgjsRadialGradient1476"><stop stop-color="#0e2a47" offset="0"></stop><stop stop-color="rgba(158, 0, 136, 1)" offset="1"></stop></radialGradient><style>
                @keyframes float1 {
                    0%{transform: translate(0, 0)}
                    50%{transform: translate(-10px, 0)}
                    100%{transform: translate(0, 0)}
                }

                .triangle-float1 {
                    animation: float1 5s infinite;
                }

                @keyframes float2 {
                    0%{transform: translate(0, 0)}
                    50%{transform: translate(-5px, -5px)}
                    100%{transform: translate(0, 0)}
                }

                .triangle-float2 {
                    animation: float2 4s infinite;
                }

                @keyframes float3 {
                    0%{transform: translate(0, 0)}
                    50%{transform: translate(0, -10px)}
                    100%{transform: translate(0, 0)}
                }

                .triangle-float3 {
                    animation: float3 6s infinite;
                }
            </style></defs></svg>